{
  "id": "case_03_gimp_move_text_box_geminipro31",
  "title": "GIMP text-layer move: v9 moves the intended layer, not the background",
  "model": "geminipro31",
  "app": "gimp",
  "task_id": "e2dd0213-26db-4349-abe5-d5667bfd725c",
  "instruction": "Shift the text box to the left without accidentally selecting the image layer beneath it.",
  "why_selected": "This case has a clear visual distinction: failures drag around the wrong target or overshoot, while v9 deliberately activates and moves the text layer.",
  "variants": {
    "no_skills": {
      "caption": "No-skills: repeatedly clicks tools/layers and drags from the image area, often affecting or targeting the background instead of the text box.",
      "score": "0.0",
      "steps": 20,
      "clip_file": "no_skills.mp4",
      "clip_start_sec": 250.0,
      "clip_target_duration_sec": 55.0,
      "clip_probe": {
        "bytes": 1169986,
        "duration_sec": 57.23,
        "video_stream": "Stream #0:0[0x1](und): Video: h264 (High 4:4:4 Predictive) (avc1 / 0x31637661), yuv444p(progressive), 1920x1080, 160 kb/s, 30 fps, 30 tbr, 15360 tbn (default)"
      },
      "source_recording": "evaluation_results/skills419_full_domain_geminipro31/no_skills/pyautogui/screenshot/gemini31pro_office_no_skills/gimp/e2dd0213-26db-4349-abe5-d5667bfd725c/recording.mp4",
      "source_probe": {
        "bytes": 5784310,
        "duration_sec": 334.43,
        "video_stream": "Stream #0:0[0x1](und): Video: h264 (High 4:4:4 Predictive) (avc1 / 0x31637661), yuv444p(progressive), 1920x1080, 135 kb/s, 30 fps, 30 tbr, 15360 tbn (default)"
      },
      "sha256": "f85e6f12a9fd072653f350f9cba94f05589a35191830c3d28718a6b07cbf8946",
      "skill_mode": "no_skills",
      "text_skill_mode": null,
      "task_skill_names": [],
      "loaded_skill_names": [],
      "consulted_skill_names": [],
      "load_skill_calls": 0,
      "skill_branch_invocations": 0
    },
    "text_only": {
      "caption": "Text-only: receives the right high-level idea but keeps dragging large distances from the wrong visual anchor, so the target text box is not placed correctly.",
      "score": "0.0",
      "steps": 20,
      "clip_file": "text_only.mp4",
      "clip_start_sec": 245.0,
      "clip_target_duration_sec": 55.0,
      "clip_probe": {
        "bytes": 776625,
        "duration_sec": 58.4,
        "video_stream": "Stream #0:0[0x1](und): Video: h264 (High 4:4:4 Predictive) (avc1 / 0x31637661), yuv444p(progressive), 1920x1080, 103 kb/s, 30 fps, 30 tbr, 15360 tbn (default)"
      },
      "source_recording": "evaluation_results/skills419_full_domain_geminipro31/text-only/pyautogui/screenshot/geminipro31_skills419_text_branch_full/gimp/e2dd0213-26db-4349-abe5-d5667bfd725c/recording.mp4",
      "source_probe": {
        "bytes": 5125338,
        "duration_sec": 396.77,
        "video_stream": "Stream #0:0[0x1](und): Video: h264 (High 4:4:4 Predictive) (avc1 / 0x31637661), yuv444p(progressive), 1920x1080, 100 kb/s, 30 fps, 30 tbr, 15360 tbn (default)"
      },
      "sha256": "e53654632ac291e0847aeb385037051f7a50f14d3c4f62aedc8c151fc6ba7528",
      "skill_mode": "text_only",
      "text_skill_mode": "branch_planner",
      "task_skill_names": [
        "GIMP_GIMP_Move_Text_Or_Object_Layers_Without_Selecting_Background_Content",
        "GIMP_GIMP_Manage_Layers_Masks_and_Blend_States"
      ],
      "loaded_skill_names": [],
      "consulted_skill_names": [
        "GIMP_GIMP_Move_Text_Or_Object_Layers_Without_Selecting_Background_Content"
      ],
      "load_skill_calls": 1,
      "skill_branch_invocations": 1
    },
    "multimodal_v9": {
      "caption": "Multimodal v9: activates the text/object layer, uses the move tool, and drags the text box left while avoiding the background layer.",
      "score": "1.0",
      "steps": 8,
      "clip_file": "multimodal.mp4",
      "clip_start_sec": 45.0,
      "clip_target_duration_sec": 50.0,
      "clip_probe": {
        "bytes": 816327,
        "duration_sec": 53.4,
        "video_stream": "Stream #0:0[0x1](und): Video: h264 (High 4:4:4 Predictive) (avc1 / 0x31637661), yuv444p(progressive), 1920x1080, 119 kb/s, 30 fps, 30 tbr, 15360 tbn (default)"
      },
      "source_recording": "evaluation_results/skills419_full_domain_geminipro31/multimodal_v9/pyautogui/screenshot/geminipro31_skills419_multimodal_v9_full/gimp/e2dd0213-26db-4349-abe5-d5667bfd725c/recording.mp4",
      "source_probe": {
        "bytes": 3095400,
        "duration_sec": 189.53,
        "video_stream": "Stream #0:0[0x1](und): Video: h264 (High 4:4:4 Predictive) (avc1 / 0x31637661), yuv444p(progressive), 1920x1080, 127 kb/s, 30 fps, 30 tbr, 15360 tbn (default)"
      },
      "sha256": "78ac81d7d0fa0ba95e3a8079e6adb7f32f4d85e66be2c68bf6d460fff8a9b757",
      "skill_mode": "multimodal",
      "text_skill_mode": null,
      "task_skill_names": [
        "GIMP_GIMP_Move_Text_Or_Object_Layers_Without_Selecting_Background_Content",
        "GIMP_GIMP_Manage_Layers_Masks_and_Blend_States"
      ],
      "loaded_skill_names": [
        "GIMP_GIMP_Move_Text_Or_Object_Layers_Without_Selecting_Background_Content"
      ],
      "consulted_skill_names": [
        "GIMP_GIMP_Move_Text_Or_Object_Layers_Without_Selecting_Background_Content"
      ],
      "load_skill_calls": 1,
      "skill_branch_invocations": 1
    }
  }
}
